<?xml version="1.0" encoding="iso-8859-1"?>
<!-- Generator: Adobe Illustrator 19.0.0, SVG Export Plug-In . SVG Version: 6.00 Build 0)  -->
<svg version="1.1" id="Capa_1" xmlns="http://www.w3.org/2000/svg" xmlns:xlink="http://www.w3.org/1999/xlink" x="0px" y="0px"
	 viewBox="0 0 512.007 512.007" style="enable-background:new 0 0 512.007 512.007;" xml:space="preserve">
<rect x="88.334" y="35.391" style="fill:#90D1F3;" width="406.006" height="476.616"/>
<rect x="335.468" y="317.83" style="fill:#FCBF29;" width="35.305" height="88.262"/>
<rect x="370.773" y="282.525" style="fill:#F28D01;" width="35.305" height="123.567"/>
<g>
	<rect x="406.078" y="335.483" style="fill:#FCBF29;" width="35.305" height="70.61"/>
	<circle style="fill:#FCBF29;" cx="194.16" cy="344.309" r="61.784"/>
	<rect x="202.986" y="79.522" style="fill:#FCBF29;" width="105.915" height="52.957"/>
	<rect x="202.986" y="176.611" style="fill:#FCBF29;" width="105.915" height="52.957"/>
</g>
<g>
	<path style="opacity:0.5;fill:#F28D01;enable-background:new    ;" d="M203.03,229.559v-52.957h26.479
		c0,29.25,23.707,52.957,52.957,52.957H203.03z"/>
	<path style="opacity:0.5;fill:#F28D01;enable-background:new    ;" d="M203.03,132.471V79.514h26.479
		c0,29.25,23.707,52.957,52.957,52.957H203.03z"/>
</g>
<path style="fill:#FCBF29;" d="M123.595,158.95v-27.176c33.769-19.497,45.34-62.684,25.843-96.453S86.754-10.028,52.985,9.469
	s-45.34,62.684-25.843,96.453c6.196,10.733,15.11,19.647,25.843,25.843v27.176h70.61V158.95z"/>
<rect x="52.941" y="158.958" style="fill:#591E00;" width="70.61" height="35.305"/>
<rect x="52.941" y="194.263" style="fill:#90D1F3;" width="35.305" height="61.784"/>
<path style="opacity:0.5;fill:#F28D01;enable-background:new    ;" d="M114.768,114.818c-38.959,0.035-70.574-31.527-70.61-70.486
	c-0.009-12.268,3.177-24.334,9.259-34.996C19.542,28.542,7.645,71.57,26.85,105.454c6.205,10.953,15.234,20.036,26.134,26.32v27.176
	h70.61v-27.176c10.812-6.284,19.78-15.313,25.993-26.179C138.979,111.641,126.984,114.818,114.768,114.818z"/>
<rect x="88.334" y="194.263" style="fill:#269BD8;" width="35.305" height="61.784"/>
<polygon style="fill:#0D529E;" points="52.985,256.038 123.595,256.038 88.29,300.169 "/>
<g>
	<rect x="79.508" y="97.175" style="fill:#FFFFFF;" width="17.652" height="61.784"/>
	<path style="fill:#FFFFFF;" d="M88.29,105.992c-2.339,0-4.59-0.927-6.24-2.586L55.571,76.927l12.48-12.48L88.29,84.686
		l20.239-20.239l12.48,12.48L94.53,103.406C92.879,105.057,90.629,105.983,88.29,105.992z"/>
</g>
<g>
	<rect x="123.639" y="432.571" style="fill:#591E00;" width="17.652" height="17.652"/>
	<rect x="158.855" y="432.571" style="fill:#591E00;" width="105.915" height="17.652"/>
	<rect x="123.639" y="467.876" style="fill:#591E00;" width="141.219" height="17.652"/>
	<rect x="317.815" y="432.571" style="fill:#591E00;" width="17.652" height="17.652"/>
	<rect x="353.12" y="432.571" style="fill:#591E00;" width="105.915" height="17.652"/>
	<rect x="317.815" y="467.876" style="fill:#591E00;" width="141.219" height="17.652"/>
	<rect x="335.468" y="79.522" style="fill:#591E00;" width="17.652" height="17.652"/>
	<rect x="370.773" y="79.522" style="fill:#591E00;" width="88.262" height="17.652"/>
	<rect x="335.468" y="114.827" style="fill:#591E00;" width="123.567" height="17.652"/>
	<rect x="335.468" y="176.611" style="fill:#591E00;" width="17.652" height="17.652"/>
	<rect x="370.773" y="176.611" style="fill:#591E00;" width="88.262" height="17.652"/>
	<rect x="335.468" y="211.916" style="fill:#591E00;" width="123.567" height="17.652"/>
</g>
<path style="opacity:0.5;fill:#F28D01;enable-background:new    ;" d="M225.096,375.192c-34.087,0.035-61.748-27.555-61.784-61.642
	c-0.009-8.809,1.862-17.511,5.499-25.534c-31.121,13.981-45.023,50.557-31.033,81.678c13.981,31.121,50.557,45.022,81.678,31.033
	c13.795-6.196,24.837-17.238,31.033-31.033C242.51,373.312,233.86,375.183,225.096,375.192z"/>
<path style="fill:#591E00;" d="M203.03,283.223c-5.843-0.944-11.809-0.944-17.652,0v57.979l-36.188,45.279
	c4.042,4.316,8.685,8.032,13.778,11.042l35.481-44.396h56.832c0.944-5.843,0.944-11.809,0-17.652H203.03V283.223z"/>
<polygon style="opacity:0.5;fill:#F28D01;enable-background:new    ;" points="441.338,406.084 335.424,406.084 335.424,353.126 
	441.338,379.605 "/>
<g>
</g>
<g>
</g>
<g>
</g>
<g>
</g>
<g>
</g>
<g>
</g>
<g>
</g>
<g>
</g>
<g>
</g>
<g>
</g>
<g>
</g>
<g>
</g>
<g>
</g>
<g>
</g>
<g>
</g>
</svg>
